<svg xmlns="http://www.w3.org/2000/svg" viewBox="0 0 100 100" width="100" height="100">
  <rect width="100" height="100" rx="22" ry="22" fill="#F6F1E6"/>
  <g transform="translate(14.972,76.568) scale(0.06992,-0.06992)">
    <path d="M835 702 764 613H556V805C583 809 590 819 593 833L435 849V613H43L52 584H375C317 382 193 163 29 23L39 13C213 108 346 240 435 396V-89H458C504 -89 556 -59 556 -46V571C613 320 712 140 862 28C881 86 922 124 969 132L973 144C812 219 653 379 571 584H935C950 584 961 589 964 600C916 642 835 702 835 702Z" fill="#211C15"/>
  </g>
</svg>
